<?xml version="1.0" encoding="iso-8859-1"?>
<!-- Generator: Adobe Illustrator 16.0.0, SVG Export Plug-In . SVG Version: 6.00 Build 0)  -->
<!DOCTYPE svg PUBLIC "-//W3C//DTD SVG 1.1//EN" "http://www.w3.org/Graphics/SVG/1.1/DTD/svg11.dtd">
<svg version="1.1" id="Capa_1" xmlns="http://www.w3.org/2000/svg" xmlns:xlink="http://www.w3.org/1999/xlink" x="0px" y="0px"
	 width="131.317px" height="131.317px" viewBox="0 0 131.317 131.317" style="enable-background:new 0 0 131.317 131.317;"
	 xml:space="preserve">
<g>
	<g>
		<polygon points="46.164,0 46.164,5.466 121.075,5.466 121.075,98.517 128.252,98.517 128.252,0 		"/>
		<polygon points="31.804,16.405 106.709,16.405 106.709,109.451 113.885,109.451 113.885,10.93 31.804,10.93 		"/>
		<polygon points="17.432,27.343 92.336,27.343 92.336,120.383 99.514,120.383 99.514,21.869 17.432,21.869 		"/>
		<path d="M3.065,131.317h82.09V32.808H3.065V131.317z M20.646,57.323h42.316v3.444H20.646V57.323z M20.646,72.663h32.596v3.452
			H20.646V72.663z M20.646,88h32.596v3.458H20.646V88z M20.646,103.355h42.316v3.448H20.646V103.355z"/>
	</g>
</g>
<g>
</g>
<g>
</g>
<g>
</g>
<g>
</g>
<g>
</g>
<g>
</g>
<g>
</g>
<g>
</g>
<g>
</g>
<g>
</g>
<g>
</g>
<g>
</g>
<g>
</g>
<g>
</g>
<g>
</g>
</svg>
